<svg width="1024" height="1024" viewBox="0 0 1024 1024" fill="none" xmlns="http://www.w3.org/2000/svg">
  <defs>
    <linearGradient id="bg" x1="140" y1="80" x2="900" y2="940" gradientUnits="userSpaceOnUse">
      <stop stop-color="#0B1D51"/>
      <stop offset="1" stop-color="#1D4ED8"/>
    </linearGradient>
    <linearGradient id="shield" x1="512" y1="190" x2="512" y2="832" gradientUnits="userSpaceOnUse">
      <stop stop-color="#F8FAFF"/>
      <stop offset="1" stop-color="#E8F0FF"/>
    </linearGradient>
    <linearGradient id="stripe" x1="290" y1="248" x2="734" y2="776" gradientUnits="userSpaceOnUse">
      <stop stop-color="#16A34A"/>
      <stop offset="1" stop-color="#DC2626"/>
    </linearGradient>
    <filter id="softShadow" x="120" y="120" width="784" height="808" filterUnits="userSpaceOnUse" color-interpolation-filters="sRGB">
      <feDropShadow dx="0" dy="16" stdDeviation="18" flood-color="#000" flood-opacity="0.24"/>
    </filter>
  </defs>

  <rect width="1024" height="1024" rx="220" fill="url(#bg)"/>

  <g filter="url(#softShadow)">
    <path d="M512 180C613 180 701 210 772 263V520C772 672 663 798 512 844C361 798 252 672 252 520V263C323 210 411 180 512 180Z" fill="url(#shield)"/>
  </g>

  <path d="M324 276C378 246 440 228 512 228C584 228 646 246 700 276V518C700 640 616 735 512 776C408 735 324 640 324 518V276Z" fill="#0F244F"/>

  <path d="M356 288C401 262 453 248 512 248C571 248 623 262 668 288V514C668 624 596 706 512 742C428 706 356 624 356 514V288Z" fill="url(#stripe)"/>

  <circle cx="512" cy="486" r="152" fill="#F8FAFF"/>
  <circle cx="512" cy="486" r="120" fill="#0F244F"/>
  <path d="M512 396L541 451L604 460L558 505L569 568L512 540L455 568L466 505L420 460L483 451L512 396Z" fill="#F8FAFF"/>

  <rect x="286" y="150" width="452" height="106" rx="53" fill="#F8FAFF"/>
  <text x="512" y="217" text-anchor="middle" font-family="Avenir, Inter, Arial, sans-serif" font-size="52" font-weight="900" fill="#0B1D51" letter-spacing="2">ALBUM UTD 26</text>

  <rect x="348" y="788" width="328" height="78" rx="39" fill="#0B1D51"/>
  <text x="512" y="840" text-anchor="middle" font-family="Avenir, Inter, Arial, sans-serif" font-size="44" font-weight="800" fill="#FFFFFF" letter-spacing="3">HOME</text>
</svg>
